<?xml version="1.0" encoding="UTF-8"?>
<svg xmlns="http://www.w3.org/2000/svg" width="900" height="320" viewBox="0 0 900 320">
  <rect width="900" height="320" rx="24" fill="#EEF2FF"/>
  <text x="36" y="44" font-family="Arial, sans-serif" font-size="22" font-weight="700" fill="#312E81">LED Panel — Geometrik Çoğalma</text>
  
  <g transform="translate(40,70)">
    <text x="0" y="0" font-size="14" fill="#475569">Adım 1</text>
    <rect x="0" y="12" width="36" height="36" rx="6" fill="#818CF8"/>
    <text x="60" y="38" font-size="24" fill="#6366F1">×3</text>
    <text x="100" y="0" font-size="14" fill="#475569">Adım 2</text>
    <rect x="100" y="12" width="36" height="36" rx="6" fill="#6366F1"/>
    <rect x="142" y="12" width="36" height="36" rx="6" fill="#6366F1"/>
    <rect x="184" y="12" width="36" height="36" rx="6" fill="#6366F1"/>
    <text x="240" y="38" font-size="24" fill="#6366F1">×3</text>
    <text x="280" y="0" font-size="14" fill="#475569">Adım 3</text>
    <g transform="translate(280,12)">
      <rect x="0" y="0" width="34" height="34" rx="5" fill="#4F46E5"/>
      <rect x="38" y="0" width="34" height="34" rx="5" fill="#4F46E5"/>
      <rect x="76" y="0" width="34" height="34" rx="5" fill="#4F46E5"/>
      <rect x="0" y="38" width="34" height="34" rx="5" fill="#4F46E5"/>
      <rect x="38" y="38" width="34" height="34" rx="5" fill="#4F46E5"/>
      <rect x="76" y="38" width="34" height="34" rx="5" fill="#4F46E5"/>
      <rect x="0" y="76" width="34" height="34" rx="5" fill="#4F46E5"/>
      <rect x="38" y="76" width="34" height="34" rx="5" fill="#4F46E5"/>
      <rect x="76" y="76" width="34" height="34" rx="5" fill="#4F46E5"/>
    </g>
    <text x="440" y="38" font-size="24" fill="#6366F1">×3</text>
    <text x="480" y="0" font-size="14" fill="#475569">Adım 4</text>
    <text x="480" y="50" font-size="28" font-weight="700" fill="#3730A3">27 hücre</text>
    <text x="620" y="0" font-size="14" fill="#475569">Adım 5</text>
    <rect x="620" y="12" width="200" height="120" rx="12" fill="#EEF2FF" stroke="#818CF8" stroke-width="2" stroke-dasharray="8 6"/>
    <text x="720" y="78" text-anchor="middle" font-size="36" font-weight="700" fill="#4338CA">?</text>
  </g>
  <text x="480" y="230" font-size="18" fill="#312E81">Terimler: 1 → 3 → 9 → 27 → ?</text>
  <text x="36" y="298" font-family="Arial, sans-serif" font-size="16" fill="#64748B">Her adımda hücre sayısı 3 ile çarpılıyor. 5. adımda kaç hücre vardır?</text>
</svg>