<svg xmlns="http://www.w3.org/2000/svg" width="800" height="240" viewBox="0 0 800 240"><rect width="800" height="240" fill="#fff7ed"/><text x="32" y="42" font-family="Arial" font-size="24" font-weight="700" fill="#7c2d12">Meyve Oruntusu</text><circle cx="110" cy="130" r="34" fill="#ef4444"/><path d="M110 80c8-12 20-10 24-1" stroke="#16a34a" stroke-width="6" fill="none" stroke-linecap="round"/><path d="M260 95c12 0 20 10 16 21 12 6 18 16 18 28 0 15-13 24-34 24s-34-9-34-24c0-12 6-22 18-28-4-11 4-21 16-21z" fill="#84cc16"/><circle cx="410" cy="130" r="34" fill="#ef4444"/><path d="M410 80c8-12 20-10 24-1" stroke="#16a34a" stroke-width="6" fill="none" stroke-linecap="round"/><path d="M560 95c12 0 20 10 16 21 12 6 18 16 18 28 0 15-13 24-34 24s-34-9-34-24c0-12 6-22 18-28-4-11 4-21 16-21z" fill="#84cc16"/><circle cx="710" cy="130" r="34" fill="#e2e8f0" stroke="#94a3b8" stroke-dasharray="8 6"/><text x="695" y="140" font-family="Arial" font-size="40" font-weight="700" fill="#64748b">?</text></svg>