<svg xmlns="http://www.w3.org/2000/svg" viewBox="0 0 900 520" role="img" aria-labelledby="title desc">
  <title id="title">Besinci sinif kare sayi oruntusu</title>
  <desc id="desc">Birer buyuyen kare sayilarin nokta karelerle gosterildigi oruntu gorseli.</desc>
  <rect width="900" height="520" fill="#f0fdf4"/>
  <rect x="36" y="36" width="828" height="448" rx="34" fill="#dcfce7" stroke="#15803d" stroke-width="6"/>
  <text x="72" y="102" font-family="Verdana, sans-serif" font-size="34" font-weight="700" fill="#166534">Kare sayi oruntusu</text>
  <g transform="translate(90 168)">
    <g fill="#22c55e">
      <rect x="0" y="0" width="24" height="24" rx="6"/>
    </g>
    <text x="12" y="64" text-anchor="middle" font-family="Verdana, sans-serif" font-size="24" font-weight="700" fill="#166534">1</text>
  </g>
  <g transform="translate(220 144)">
    <g fill="#16a34a">
      <rect x="0" y="0" width="24" height="24" rx="6"/>
      <rect x="30" y="0" width="24" height="24" rx="6"/>
      <rect x="0" y="30" width="24" height="24" rx="6"/>
      <rect x="30" y="30" width="24" height="24" rx="6"/>
    </g>
    <text x="27" y="94" text-anchor="middle" font-family="Verdana, sans-serif" font-size="24" font-weight="700" fill="#166534">4</text>
  </g>
  <g transform="translate(380 116)">
    <g fill="#15803d">
      <rect x="0" y="0" width="24" height="24" rx="6"/>
      <rect x="30" y="0" width="24" height="24" rx="6"/>
      <rect x="60" y="0" width="24" height="24" rx="6"/>
      <rect x="0" y="30" width="24" height="24" rx="6"/>
      <rect x="30" y="30" width="24" height="24" rx="6"/>
      <rect x="60" y="30" width="24" height="24" rx="6"/>
      <rect x="0" y="60" width="24" height="24" rx="6"/>
      <rect x="30" y="60" width="24" height="24" rx="6"/>
      <rect x="60" y="60" width="24" height="24" rx="6"/>
    </g>
    <text x="42" y="124" text-anchor="middle" font-family="Verdana, sans-serif" font-size="24" font-weight="700" fill="#166534">9</text>
  </g>
  <g transform="translate(582 84)">
    <g fill="#166534">
      <rect x="0" y="0" width="22" height="22" rx="5"/>
      <rect x="28" y="0" width="22" height="22" rx="5"/>
      <rect x="56" y="0" width="22" height="22" rx="5"/>
      <rect x="84" y="0" width="22" height="22" rx="5"/>
      <rect x="0" y="28" width="22" height="22" rx="5"/>
      <rect x="28" y="28" width="22" height="22" rx="5"/>
      <rect x="56" y="28" width="22" height="22" rx="5"/>
      <rect x="84" y="28" width="22" height="22" rx="5"/>
      <rect x="0" y="56" width="22" height="22" rx="5"/>
      <rect x="28" y="56" width="22" height="22" rx="5"/>
      <rect x="56" y="56" width="22" height="22" rx="5"/>
      <rect x="84" y="56" width="22" height="22" rx="5"/>
      <rect x="0" y="84" width="22" height="22" rx="5"/>
      <rect x="28" y="84" width="22" height="22" rx="5"/>
      <rect x="56" y="84" width="22" height="22" rx="5"/>
      <rect x="84" y="84" width="22" height="22" rx="5"/>
    </g>
    <text x="53" y="146" text-anchor="middle" font-family="Verdana, sans-serif" font-size="24" font-weight="700" fill="#166534">16</text>
  </g>
  <text x="72" y="404" font-family="Verdana, sans-serif" font-size="28" fill="#166534">1, 4, 9, 16 ... kare sayilar n x n duzeniyle gorulur.</text>
</svg>