<svg xmlns="http://www.w3.org/2000/svg" width="800" height="240" viewBox="0 0 800 240"><rect width="800" height="240" fill="#f0fdf4"/><text x="32" y="42" font-family="Arial" font-size="24" font-weight="700" fill="#166534">Meyve Dizisi</text><circle cx="100" cy="130" r="30" fill="#ef4444"/><path d="M100 84c8-10 18-9 22-1" stroke="#16a34a" stroke-width="5" fill="none"/><path d="M235 96c11 0 18 8 14 19 10 5 16 14 16 24 0 13-11 21-30 21s-30-8-30-21c0-10 6-19 16-24-4-11 3-19 14-19z" fill="#84cc16"/><path d="M352 124c18 26 46 29 65 6-22 5-37-8-42-28-14 3-24 10-23 22z" fill="#facc15" stroke="#eab308" stroke-width="4" stroke-linejoin="round"/><circle cx="470" cy="130" r="30" fill="#ef4444"/><path d="M470 84c8-10 18-9 22-1" stroke="#16a34a" stroke-width="5" fill="none"/><path d="M605 96c11 0 18 8 14 19 10 5 16 14 16 24 0 13-11 21-30 21s-30-8-30-21c0-10 6-19 16-24-4-11 3-19 14-19z" fill="#84cc16"/><circle cx="730" cy="130" r="30" fill="#e2e8f0" stroke="#94a3b8" stroke-dasharray="8 6"/><text x="716" y="140" font-family="Arial" font-size="36" font-weight="700" fill="#64748b">?</text></svg>