<svg xmlns="http://www.w3.org/2000/svg" width="120" height="120" viewBox="0 0 120 120"><rect width="120" height="120" rx="20" fill="#fff1f2"/><path d="M60 28c10 0 18 6 22 15l-22 9-22-9c4-9 12-15 22-15z" fill="#16a34a"/><path d="M60 45c23 0 32 18 28 39-4 22-16 36-28 36s-24-14-28-36c-4-21 5-39 28-39z" fill="#f43f5e"/><g fill="#fde68a"><circle cx="49" cy="66" r="2.2"/><circle cx="62" cy="62" r="2.2"/><circle cx="72" cy="74" r="2.2"/><circle cx="54" cy="82" r="2.2"/><circle cx="66" cy="92" r="2.2"/></g></svg>